<?xml version="1.0" standalone="no"?>
<!DOCTYPE svg PUBLIC "-//W3C//DTD SVG 20010904//EN"
 "http://www.w3.org/TR/2001/REC-SVG-20010904/DTD/svg10.dtd">
<svg version="1.0" xmlns="http://www.w3.org/2000/svg"
 width="1024.000000pt" height="1024.000000pt" viewBox="0 0 1024.000000 1024.000000"
 preserveAspectRatio="xMidYMid meet">
<metadata>
Created by potrace 1.11, written by Peter Selinger 2001-2013
</metadata>
<g transform="translate(0.000000,1024.000000) scale(0.100000,-0.100000)"
fill="#000000" stroke="none">
<path d="M4405 10165 c-47 -22 -73 -47 -92 -90 -16 -37 -18 -75 -18 -368 l1
-327 -46 -1 c-55 0 -146 -7 -220 -15 -30 -3 -77 -8 -105 -10 -223 -21 -573
-93 -780 -161 -462 -150 -808 -355 -1110 -658 -438 -438 -697 -1015 -699
-1555 0 -85 12 -268 18 -279 2 -3 7 -27 11 -51 25 -176 131 -435 251 -611 174
-257 399 -461 733 -663 107 -65 428 -224 576 -286 55 -23 114 -48 130 -55 41
-18 316 -127 390 -155 33 -13 74 -29 90 -36 34 -15 318 -122 565 -213 91 -34
172 -65 180 -70 13 -7 15 -115 15 -874 0 -864 0 -867 -20 -863 -98 19 -554
156 -650 196 -11 4 -42 16 -70 25 -57 19 -270 101 -300 115 -11 5 -54 23 -95
40 -41 17 -88 37 -105 45 -16 7 -62 27 -101 43 -116 51 -390 189 -503 254 -83
48 -113 61 -144 60 -68 -3 -75 -9 -203 -177 -46 -60 -118 -155 -161 -210 -42
-55 -111 -145 -153 -200 -42 -55 -105 -138 -141 -183 -392 -510 -387 -504
-397 -550 -18 -79 14 -115 243 -269 100 -67 303 -193 310 -193 3 0 22 -10 43
-23 103 -65 465 -251 652 -335 322 -144 650 -270 945 -361 55 -17 114 -35 130
-40 152 -48 632 -162 682 -163 5 0 15 -4 24 -8 14 -8 16 -49 16 -353 0 -340 0
-344 23 -384 15 -27 39 -50 69 -66 l46 -25 710 0 c443 -1 727 3 756 9 50 11
90 43 115 92 15 28 17 72 18 321 1 255 3 289 17 291 8 2 42 6 75 9 76 8 205
25 231 30 12 3 43 8 70 12 26 3 57 8 68 11 22 4 96 19 132 27 217 46 602 172
722 236 9 5 70 35 136 68 153 75 364 206 462 286 10 8 52 42 93 76 166 136
366 352 503 543 253 353 410 736 442 1082 7 78 8 341 2 353 -3 4 -8 34 -12 67
-10 93 -51 255 -91 362 -80 215 -192 407 -357 613 -69 86 -293 312 -352 356
-22 16 -49 37 -59 46 -60 54 -381 259 -576 367 -129 72 -578 293 -730 360 -80
35 -163 71 -185 81 -76 34 -221 93 -345 142 -69 26 -134 53 -145 58 -11 6 -38
16 -60 23 l-40 14 -1 712 c0 496 3 711 10 711 12 0 338 -106 371 -120 11 -5
79 -29 150 -53 180 -62 596 -217 660 -247 96 -44 210 -81 233 -76 63 15 82 30
135 109 161 241 720 1088 740 1123 30 51 8 138 -43 174 -67 48 -421 211 -730
337 -275 112 -864 320 -1040 367 -30 8 -93 26 -140 41 -47 14 -94 27 -105 30
-11 2 -51 13 -90 24 -38 10 -88 24 -111 30 l-41 11 1 417 c1 230 -2 435 -7
457 -10 50 -42 90 -92 115 -39 20 -58 20 -770 20 -606 0 -735 -2 -760 -14z
m-111 -3012 c-1 -285 -2 -521 -3 -525 0 -4 -52 11 -113 33 -348 122 -486 251
-493 460 -6 203 107 366 326 467 50 23 229 76 274 81 7 1 10 -170 9 -516z
m1926 -3332 c96 -49 224 -135 281 -188 140 -131 181 -258 138 -429 -44 -177
-160 -311 -344 -399 -69 -33 -201 -80 -242 -87 -17 -3 -18 28 -19 587 -1 325
1 593 3 597 3 7 54 -16 183 -81z"/>
</g>
</svg>
